<?xml version="1.0" encoding="UTF-8" standalone="no"?>
<svg xmlns="http://www.w3.org/2000/svg" version="1.0" width="1600" height="1600" id="4-cube t0.svg">
<g style="stroke:#000000;stroke-width:6.0;stroke-opacity:0.50;">
<line x1="1522.000" y1="800.000" x2="1310.531" y2="1310.531"/>
<line x1="1522.000" y1="800.000" x2="1011.469" y2="1011.469"/>
<line x1="1522.000" y1="800.000" x2="1011.469" y2="588.531"/>
<line x1="1522.000" y1="800.000" x2="1310.531" y2="289.469"/>
<line x1="1522.000" y1="800.000" x2="1522.000" y2="800.000"/>
<line x1="1310.531" y1="1310.531" x2="800.000" y2="1522.000"/>
<line x1="1310.531" y1="1310.531" x2="800.000" y2="1099.062"/>
<line x1="1310.531" y1="1310.531" x2="1099.062" y2="800.000"/>
<line x1="1310.531" y1="1310.531" x2="1310.531" y2="1310.531"/>
<line x1="1011.469" y1="1011.469" x2="800.000" y2="1522.000"/>
<line x1="1011.469" y1="1011.469" x2="500.938" y2="800.000"/>
<line x1="1011.469" y1="1011.469" x2="800.000" y2="500.938"/>
<line x1="1011.469" y1="1011.469" x2="1011.469" y2="1011.469"/>
<line x1="800.000" y1="1522.000" x2="289.469" y2="1310.531"/>
<line x1="800.000" y1="1522.000" x2="588.531" y2="1011.469"/>
<line x1="800.000" y1="1522.000" x2="800.000" y2="1522.000"/>
<line x1="1011.469" y1="588.531" x2="800.000" y2="1099.062"/>
<line x1="1011.469" y1="588.531" x2="500.938" y2="800.000"/>
<line x1="1011.469" y1="588.531" x2="800.000" y2="78.000"/>
<line x1="1011.469" y1="588.531" x2="1011.469" y2="588.531"/>
<line x1="800.000" y1="1099.062" x2="289.469" y2="1310.531"/>
<line x1="800.000" y1="1099.062" x2="588.531" y2="588.531"/>
<line x1="800.000" y1="1099.062" x2="800.000" y2="1099.062"/>
<line x1="500.938" y1="800.000" x2="289.469" y2="1310.531"/>
<line x1="500.938" y1="800.000" x2="289.469" y2="289.469"/>
<line x1="500.938" y1="800.000" x2="500.938" y2="800.000"/>
<line x1="289.469" y1="1310.531" x2="78.000" y2="800.000"/>
<line x1="289.469" y1="1310.531" x2="289.469" y2="1310.531"/>
<line x1="1310.531" y1="289.469" x2="1099.062" y2="800.000"/>
<line x1="1310.531" y1="289.469" x2="800.000" y2="500.938"/>
<line x1="1310.531" y1="289.469" x2="800.000" y2="78.000"/>
<line x1="1310.531" y1="289.469" x2="1310.531" y2="289.469"/>
<line x1="1099.062" y1="800.000" x2="588.531" y2="1011.469"/>
<line x1="1099.062" y1="800.000" x2="588.531" y2="588.531"/>
<line x1="1099.062" y1="800.000" x2="1099.062" y2="800.000"/>
<line x1="800.000" y1="500.938" x2="588.531" y2="1011.469"/>
<line x1="800.000" y1="500.938" x2="289.469" y2="289.469"/>
<line x1="800.000" y1="500.938" x2="800.000" y2="500.938"/>
<line x1="588.531" y1="1011.469" x2="78.000" y2="800.000"/>
<line x1="588.531" y1="1011.469" x2="588.531" y2="1011.469"/>
<line x1="800.000" y1="78.000" x2="588.531" y2="588.531"/>
<line x1="800.000" y1="78.000" x2="289.469" y2="289.469"/>
<line x1="800.000" y1="78.000" x2="800.000" y2="78.000"/>
<line x1="588.531" y1="588.531" x2="78.000" y2="800.000"/>
<line x1="588.531" y1="588.531" x2="588.531" y2="588.531"/>
<line x1="289.469" y1="289.469" x2="78.000" y2="800.000"/>
<line x1="289.469" y1="289.469" x2="289.469" y2="289.469"/>
<line x1="78.000" y1="800.000" x2="78.000" y2="800.000"/>
</g>
<g style="stroke:#000000;stroke-width:3.0;fill:#000000">
<circle cx="1522.000" cy="800.000" r="40.0"/>
<circle cx="1310.531" cy="1310.531" r="40.0"/>
<circle cx="1011.469" cy="1011.469" r="40.0"/>
<circle cx="800.000" cy="1522.000" r="40.0"/>
<circle cx="1011.469" cy="588.531" r="40.0"/>
<circle cx="800.000" cy="1099.062" r="40.0"/>
<circle cx="500.938" cy="800.000" r="40.0"/>
<circle cx="289.469" cy="1310.531" r="40.0"/>
<circle cx="1310.531" cy="289.469" r="40.0"/>
<circle cx="1099.062" cy="800.000" r="40.0"/>
<circle cx="800.000" cy="500.938" r="40.0"/>
<circle cx="588.531" cy="1011.469" r="40.0"/>
<circle cx="800.000" cy="78.000" r="40.0"/>
<circle cx="588.531" cy="588.531" r="40.0"/>
<circle cx="289.469" cy="289.469" r="40.0"/>
<circle cx="78.000" cy="800.000" r="40.0"/>
</g>
</svg>